HIERARCHY
ROOT Hips
{
	OFFSET 0.000000 0.000000 0.000000
	CHANNELS 6 Xposition Yposition Zposition Zrotation Yrotation Xrotation 
	JOINT LHipJoint
	{
		OFFSET 0.000000 0.000000 0.000000
		CHANNELS 3 Zrotation Yrotation Xrotation
		JOINT LeftUpLeg
		{
			OFFSET 1.363060 -1.794630 0.839290
			CHANNELS 3 Zrotation Yrotation Xrotation
			JOINT LeftLeg
			{
				OFFSET 2.448110 -6.726130 0.000000
				CHANNELS 3 Zrotation Yrotation Xrotation
				JOINT LeftFoot
				{
					OFFSET 2.562200 -7.039590 0.000000
					CHANNELS 3 Zrotation Yrotation Xrotation
					JOINT LeftToeBase
					{
						OFFSET 0.157640 -0.433110 2.322550
						CHANNELS 3 Zrotation Yrotation Xrotation
						End Site
						{
							OFFSET 0.000000 0.000000 0.000000
						}
					}
				}
			}
		}
	}
	JOINT RHipJoint
	{
		OFFSET 0.000000 0.000000 0.000000
		CHANNELS 3 Zrotation Yrotation Xrotation
		JOINT RightUpLeg
		{
			OFFSET -1.305520 -1.794630 0.839290
			CHANNELS 3 Zrotation Yrotation Xrotation
			JOINT RightLeg
			{
				OFFSET -2.542530 -6.985550 0.000000
				CHANNELS 3 Zrotation Yrotation Xrotation
				JOINT RightFoot
				{
					OFFSET -2.568260 -7.056230 0.000000
					CHANNELS 3 Zrotation Yrotation Xrotation
					JOINT RightToeBase
					{
						OFFSET -0.164730 -0.452590 2.363150
						CHANNELS 3 Zrotation Yrotation Xrotation
						End Site
						{
							OFFSET 0.000000 0.000000 0.000000
						}
					}
				}
			}
		}
	}
	JOINT LowerBack
	{
		OFFSET 0.000000 0.000000 0.000000
		CHANNELS 3 Zrotation Yrotation Xrotation
		JOINT Spine
		{
			OFFSET 0.028270 2.035590 -0.193380
			CHANNELS 3 Zrotation Yrotation Xrotation
			JOINT Spine1
			{
				OFFSET 0.056720 2.048850 -0.042750
				CHANNELS 3 Zrotation Yrotation Xrotation
				JOINT Neck
				{
					OFFSET 0.000000 0.000000 0.000000
					CHANNELS 3 Zrotation Yrotation Xrotation
					JOINT Neck1
					{
						OFFSET -0.054170 1.746240 0.172020
						CHANNELS 3 Zrotation Yrotation Xrotation
						JOINT Head
						{
							OFFSET 0.104070 1.761360 -0.123970
							CHANNELS 3 Zrotation Yrotation Xrotation
							End Site
							{
								OFFSET 0.000000 0.000000 0.000000
							}
						}
					}
				}
				JOINT LeftShoulder
				{
					OFFSET 0.000000 0.000000 0.000000
					CHANNELS 3 Zrotation Yrotation Xrotation
					JOINT LeftArm
					{
						OFFSET 3.362410 1.200890 -0.311210
						CHANNELS 3 Zrotation Yrotation Xrotation
						JOINT LeftForeArm
						{
							OFFSET 4.983000 -0.000000 -0.000000
							CHANNELS 3 Zrotation Yrotation Xrotation
							JOINT LeftHand
							{
								OFFSET 3.483560 -0.000000 -0.000000
								CHANNELS 3 Zrotation Yrotation Xrotation
								JOINT LeftFingerBase
								{
									OFFSET 0.000000 0.000000 0.000000
									CHANNELS 3 Zrotation Yrotation Xrotation
									JOINT LeftHandIndex1
									{
										OFFSET 0.715260 -0.000000 -0.000000
										CHANNELS 3 Zrotation Yrotation Xrotation
										End Site
										{
											OFFSET 0.000000 0.000000 0.000000
										}
									}
								}
								JOINT LThumb
								{
									OFFSET 0.000000 0.000000 0.000000
									CHANNELS 3 Zrotation Yrotation Xrotation
									End Site
									{
										OFFSET 0.000000 0.000000 0.000000
									}
								}
							}
						}
					}
				}
				JOINT RightShoulder
				{
					OFFSET 0.000000 0.000000 0.000000
					CHANNELS 3 Zrotation Yrotation Xrotation
					JOINT RightArm
					{
						OFFSET -3.136600 1.374050 -0.404650
						CHANNELS 3 Zrotation Yrotation Xrotation
						JOINT RightForeArm
						{
							OFFSET -5.241900 -0.000000 -0.000000
							CHANNELS 3 Zrotation Yrotation Xrotation
							JOINT RightHand
							{
								OFFSET -3.444170 -0.000000 -0.000000
								CHANNELS 3 Zrotation Yrotation Xrotation
								JOINT RightFingerBase
								{
									OFFSET 0.000000 0.000000 0.000000
									CHANNELS 3 Zrotation Yrotation Xrotation
									JOINT RightHandIndex1
									{
										OFFSET -0.622530 -0.000000 -0.000000
										CHANNELS 3 Zrotation Yrotation Xrotation
										End Site
										{
											OFFSET 0.000000 0.000000 0.000000
										}
									}
								}
								JOINT RThumb
								{
									OFFSET 0.000000 0.000000 0.000000
									CHANNELS 3 Zrotation Yrotation Xrotation
									End Site
									{
										OFFSET 0.000000 0.000000 0.000000
									}
								}
							}
						}
					}
				}
			}
		}
	}
}
MOTION
Frames: 7
Frame Time: 0.008333
3.740114 17.314072 2.109450 -10.320783 -65.820368 18.799350 -10.167783 1.757861 6.608034 -3.236449 -19.655104 -15.064609 -1.080597 0.150310 17.457331 1.460663 7.332916 -9.545723 -0.259500 0.000000 -38.229000 9.356150 -2.267804 -2.619445 10.467720 -18.155658 -15.952145 0.949796 -1.861032 30.734376 -2.878947 -17.054866 3.414866 -4.054800 -0.000001 -73.607700 -2.267446 -2.612355 -4.057375 -1.033193 -2.567629 -2.949595 -5.758828 -2.563440 2.860012 12.482094 -15.953297 -7.518950 -1.929058 -0.150844 0.028309 0.000000 0.000000 0.000000 -0.658493 14.266515 -0.759102 -64.005871 -2.551148 -19.305289 -1.193397 -62.314906 -0.064228 21.121208 -6.368410 -1.251599 -0.258002 0.269397 0.000000 0.000000 0.000000 0.000000 0.000000 0.000000 0.000000 11.753403 -14.099961 -0.009244 72.578023 -15.466745 -30.158342 3.062249 26.549299 0.020279 -12.061997 11.505459 -1.246756 0.185637 -0.088805 -0.000000 0.000000 0.000000 0.000000 0.000000 0.000000 0.000000 
3.758538 17.329163 2.141890 -11.033925 -65.814452 19.188707 -10.266219 1.753785 6.529653 -3.078243 -19.499156 -14.482033 -1.053417 0.150334 17.020724 1.450941 7.350228 -9.353610 -0.233001 -0.000000 -38.113100 9.379626 -2.150795 -2.758302 10.557643 -18.327582 -17.930460 0.768894 -2.138255 34.048476 -2.824967 -16.913721 4.548816 -4.269200 0.000000 -73.091400 -1.927232 -2.694555 -3.862236 -0.958613 -2.672087 -2.908171 -5.734515 -2.664108 2.863517 12.453319 -16.121506 -7.492336 -1.935644 -0.151520 0.034314 0.000000 0.000000 0.000000 -0.634087 14.112654 -0.771967 -64.034916 -3.051586 -19.699418 -1.191824 -62.192093 -0.066318 21.213659 -6.310080 -1.246715 -0.257155 0.272988 0.000000 0.000000 0.000000 0.000000 0.000000 0.000000 0.000000 11.771418 -14.360276 -0.034592 72.523402 -15.846992 -30.469171 3.036760 27.070549 0.019852 -12.295014 11.413407 -1.260859 0.187759 -0.089749 -0.000000 0.000000 0.000000 0.000000 0.000000 0.000000 0.000000 
3.778019 17.344719 2.174275 -11.773556 -65.943942 19.721316 -10.371429 1.739569 6.436844 -2.921579 -19.213768 -14.021865 -1.023503 0.137958 16.530360 1.440407 7.361052 -9.135650 -0.201700 -0.000000 -37.990900 9.384082 -2.015901 -2.821174 10.687040 -18.233793 -20.029191 0.621601 -2.370112 36.966181 -2.760507 -16.615628 5.459292 -4.381300 0.000000 -72.234600 -1.570419 -2.767815 -3.729386 -0.880184 -2.769401 -2.880633 -5.710682 -2.758741 2.865970 12.431910 -16.268652 -7.477201 -1.941629 -0.152086 0.038038 0.000000 0.000000 0.000000 -0.576778 13.951562 -0.776130 -64.058778 -3.486495 -20.103456 -1.188702 -62.096404 -0.068358 21.267118 -6.221305 -1.233631 -0.256223 0.276484 0.000000 0.000000 0.000000 0.000000 0.000000 0.000000 0.000000 11.785484 -14.582473 -0.055912 72.386271 -16.125745 -30.667496 3.004945 27.722947 0.019310 -12.525359 11.327852 -1.275059 0.189645 -0.091093 -0.000000 0.000000 0.000000 0.000000 0.000000 0.000000 0.000000 
3.798367 17.360584 2.206600 -12.549209 -66.208900 20.407558 -10.482391 1.716226 6.330489 -2.767954 -18.792929 -13.689859 -0.991719 0.113598 15.991902 1.427846 7.357775 -8.893447 -0.165899 0.000000 -37.866000 9.366304 -1.866131 -2.811578 10.855784 -17.892612 -22.249658 0.514520 -2.562719 39.450300 -2.682666 -16.150459 6.076778 -4.374000 0.000001 -71.275699 -1.196604 -2.832214 -3.656825 -0.797977 -2.859739 -2.867079 -5.688136 -2.847446 2.865905 12.416505 -16.387082 -7.472099 -1.947020 -0.152562 0.039904 0.000000 0.000000 0.000000 -0.490692 13.776111 -0.770750 -64.060458 -3.833490 -20.513850 -1.183482 -62.044266 -0.070320 21.283868 -6.098785 -1.211846 -0.255230 0.279784 0.000000 0.000000 0.000000 0.000000 0.000000 0.000000 0.000000 11.791238 -14.759388 -0.071443 72.173267 -16.292913 -30.783037 2.968134 28.470648 0.018668 -12.739141 11.254278 -1.288557 0.191186 -0.092847 -0.000000 0.000000 0.000000 0.000000 0.000000 0.000000 0.000000 
3.819574 17.376529 2.238733 -13.366286 -66.604286 21.251550 -10.597086 1.683983 6.211358 -2.622260 -18.241875 -13.488574 -0.959216 0.078145 15.413147 1.413112 7.339387 -8.629631 -0.126300 -0.000000 -37.741300 9.324784 -1.703153 -2.733889 11.056042 -17.325660 -24.589453 0.450545 -2.721569 41.468164 -2.590466 -15.528562 6.379103 -4.252100 0.000000 -70.476100 -0.808418 -2.888633 -3.639872 -0.712572 -2.943848 -2.866399 -5.667256 -2.930829 2.864323 12.406591 -16.475143 -7.478638 -1.950924 -0.152843 0.039424 0.000000 0.000000 0.000000 -0.378797 13.593400 -0.755323 -64.026163 -4.093834 -20.919490 -1.176278 -62.035920 -0.072203 21.268956 -5.946419 -1.182457 -0.254229 0.282895 0.000000 0.000000 0.000000 0.000000 0.000000 0.000000 0.000000 11.784627 -14.890501 -0.080384 71.891616 -16.335636 -30.830259 2.926966 29.281919 0.017933 -12.934707 11.197785 -1.302052 0.192338 -0.095011 -0.000000 0.000000 0.000000 0.000000 0.000000 0.000000 0.000000 
3.841764 17.392274 2.270528 -14.229972 -67.120422 22.255530 -10.713372 1.642280 6.079448 -2.490519 -17.574354 -13.417708 -0.927214 0.033124 14.805806 1.396795 7.309326 -8.348178 -0.083600 0.000000 -37.615800 9.258516 -1.527972 -2.592634 11.275036 -16.553273 -27.038509 0.431014 -2.850668 42.989651 -2.484728 -14.773222 6.380720 -4.036200 -0.000000 -70.005901 -0.408708 -2.938318 -3.671228 -0.624658 -3.022811 -2.877214 -5.648541 -3.009835 2.861203 12.401246 -16.531631 -7.498009 -1.952760 -0.152852 0.036198 0.000000 0.000000 0.000000 -0.243369 13.402878 -0.729151 -63.943191 -4.264957 -21.314673 -1.167001 -62.072987 -0.074013 21.230531 -5.768811 -1.147067 -0.253267 0.285825 0.000000 0.000000 0.000000 0.000000 0.000000 0.000000 0.000000 11.762090 -14.976205 -0.081341 71.553511 -16.246269 -30.827925 2.881523 30.135518 0.017103 -13.111791 11.160560 -1.315746 0.193066 -0.097601 -0.000000 0.000000 0.000000 0.000000 0.000000 0.000000 0.000000 
3.865241 17.407590 2.301756 -15.144798 -67.744457 23.417847 -10.829067 1.589997 5.933789 -2.379394 -16.811368 -13.471369 -0.896931 -0.019424 14.183178 1.380240 7.275645 -8.054587 -0.038700 -0.000000 -37.483000 9.166791 -1.341688 -2.392416 11.496329 -15.594102 -29.575775 0.456664 -2.952261 43.985348 -2.367831 -13.916048 6.129017 -3.757300 -0.000000 -69.967199 -0.000654 -2.982766 -3.741046 -0.534997 -3.097894 -2.897957 -5.632372 -3.085613 2.855193 12.399175 -16.555775 -7.530883 -1.952105 -0.152530 0.029936 0.000000 0.000000 0.000000 -0.086280 13.196211 -0.691363 -63.801494 -4.338484 -21.699449 -1.155337 -62.159459 -0.075766 21.178156 -5.570964 -1.107177 -0.252378 0.288575 0.000000 0.000000 0.000000 0.000000 0.000000 0.000000 0.000000 11.719757 -15.017418 -0.072357 71.175010 -16.022554 -30.796903 2.831388 31.020741 0.016160 -13.270321 11.141668 -1.329739 0.193340 -0.100649 -0.000000 0.000000 0.000000 0.000000 0.000000 0.000000 0.000000 
